<mxfile host="app.diagrams.net" modified="2024-09-27T18:39:24.869Z" agent="Mozilla/5.0 (Macintosh; Intel Mac OS X 10_15_7) AppleWebKit/537.36 (KHTML, like Gecko) Chrome/129.0.0.0 Safari/537.36" etag="MxGiu3vVz5ignTBfJxr7" version="24.2.8" type="github">
  <diagram name="Page-1" id="EaG9QvR4Wi16K-sA3Gct">
    <mxGraphModel dx="1474" dy="1085" grid="1" gridSize="10" guides="1" tooltips="1" connect="1" arrows="1" fold="1" page="1" pageScale="1" pageWidth="850" pageHeight="1100" math="0" shadow="0">
      <root>
        <mxCell id="0" />
        <mxCell id="1" parent="0" />
        <mxCell id="jTLYBUjOExdye8NerMVp-19" value="" style="whiteSpace=wrap;html=1;strokeColor=#eb4a32;" vertex="1" parent="1">
          <mxGeometry x="170" y="120" width="590" height="480" as="geometry" />
        </mxCell>
        <mxCell id="jTLYBUjOExdye8NerMVp-1" value="" style="whiteSpace=wrap;html=1;strokeColor=#eb4a32;" vertex="1" parent="1">
          <mxGeometry x="235" y="200" width="210" height="370" as="geometry" />
        </mxCell>
        <mxCell id="jTLYBUjOExdye8NerMVp-2" value="Web Appication" style="rounded=1;whiteSpace=wrap;html=1;strokeColor=#eb4a32;" vertex="1" parent="1">
          <mxGeometry x="270" y="270" width="140" height="40" as="geometry" />
        </mxCell>
        <mxCell id="jTLYBUjOExdye8NerMVp-3" value="" style="whiteSpace=wrap;html=1;aspect=fixed;strokeColor=#EB4A32;" vertex="1" parent="1">
          <mxGeometry x="20" y="295" width="110" height="110" as="geometry" />
        </mxCell>
        <mxCell id="jTLYBUjOExdye8NerMVp-5" value="Compute Manager" style="rounded=1;whiteSpace=wrap;html=1;strokeColor=#eb4a32;" vertex="1" parent="1">
          <mxGeometry x="270" y="330" width="140" height="40" as="geometry" />
        </mxCell>
        <mxCell id="jTLYBUjOExdye8NerMVp-6" value="Unity Catalog" style="rounded=1;whiteSpace=wrap;html=1;strokeColor=#eb4a32;" vertex="1" parent="1">
          <mxGeometry x="270" y="390" width="140" height="40" as="geometry" />
        </mxCell>
        <mxCell id="jTLYBUjOExdye8NerMVp-9" value="etc.." style="rounded=1;whiteSpace=wrap;html=1;strokeColor=#eb4a32;" vertex="1" parent="1">
          <mxGeometry x="270" y="450" width="140" height="40" as="geometry" />
        </mxCell>
        <mxCell id="jTLYBUjOExdye8NerMVp-11" value="Control Plane" style="text;html=1;align=center;verticalAlign=middle;whiteSpace=wrap;rounded=0;strokeColor=#eb4a32;" vertex="1" parent="1">
          <mxGeometry x="250" y="210" width="180" height="30" as="geometry" />
        </mxCell>
        <mxCell id="jTLYBUjOExdye8NerMVp-12" value="" style="whiteSpace=wrap;html=1;strokeColor=#eb4a32;" vertex="1" parent="1">
          <mxGeometry x="490" y="200" width="210" height="370" as="geometry" />
        </mxCell>
        <mxCell id="jTLYBUjOExdye8NerMVp-13" value="Lakehouse Apps" style="rounded=1;whiteSpace=wrap;html=1;strokeColor=#eb4a32;" vertex="1" parent="1">
          <mxGeometry x="520" y="270" width="140" height="40" as="geometry" />
        </mxCell>
        <mxCell id="jTLYBUjOExdye8NerMVp-14" value="SQL Warehouse" style="rounded=1;whiteSpace=wrap;html=1;strokeColor=#eb4a32;" vertex="1" parent="1">
          <mxGeometry x="520" y="330" width="140" height="40" as="geometry" />
        </mxCell>
        <mxCell id="jTLYBUjOExdye8NerMVp-15" value="Model Serving" style="rounded=1;whiteSpace=wrap;html=1;strokeColor=#eb4a32;" vertex="1" parent="1">
          <mxGeometry x="520" y="390" width="140" height="40" as="geometry" />
        </mxCell>
        <mxCell id="jTLYBUjOExdye8NerMVp-16" value="Vector Search" style="rounded=1;whiteSpace=wrap;html=1;strokeColor=#eb4a32;" vertex="1" parent="1">
          <mxGeometry x="520" y="450" width="140" height="40" as="geometry" />
        </mxCell>
        <mxCell id="jTLYBUjOExdye8NerMVp-17" value="etc.." style="rounded=1;whiteSpace=wrap;html=1;strokeColor=#eb4a32;" vertex="1" parent="1">
          <mxGeometry x="520" y="510" width="140" height="40" as="geometry" />
        </mxCell>
        <mxCell id="jTLYBUjOExdye8NerMVp-18" value="Serverless" style="text;html=1;align=center;verticalAlign=middle;whiteSpace=wrap;rounded=0;strokeColor=#eb4a32;" vertex="1" parent="1">
          <mxGeometry x="500" y="210" width="180" height="30" as="geometry" />
        </mxCell>
        <mxCell id="jTLYBUjOExdye8NerMVp-26" value="" style="shape=image;verticalLabelPosition=bottom;labelBackgroundColor=default;verticalAlign=top;aspect=fixed;imageAspect=0;image=data:image/svg+xml,PHN2ZyB2aWV3Qm94PSIwIDAgMSAxIiB4bWxucz0iaHR0cDovL3d3dy53My5vcmcvMjAwMC9zdmciPjxwYXRoIGQ9Ik0gMSAwLjQ0MSBMIDEgMC4yNDEgTCAwLjUgMCBMIDAgMC4yNDEgTCAwIDAuNDQxIEwgMC41IDAuNjgyIEwgMC44NDggMC41MTUgTCAwLjk3MiAwLjU3NSBMIDAuOTcyIDAuNzQ0IEwgMC41IDAuOTcxIEwgMC4wMjggMC43NDQgTCAwLjAyOCAwLjU4OCBMIDAuNSAwLjgxNiBMIDAuOTIgMC42MTMgTCAwLjkyIDAuNTg0IEwgMC41IDAuNzg2IEwgMC4wNDMgMC41NjcgTCAwLjExMyAwLjUzMyBMIDAuMDgyIDAuNTE5IEwgMCAwLjU1OSBMIDAgMC43NTkgTCAwLjUgMSBMIDEgMC43NTkgTCAxIDAuNTU5IEwgMC44NDggMC40ODUgTCAwLjUgMC42NTMgTCAwLjAyOCAwLjQyNSBMIDAuMDI4IDAuMjU2IEwgMC41IDAuMDI5IEwgMC45NTcgMC4yNDkgTCAwLjUgMC40NjkgTCAwLjA4IDAuMjY3IEwgMC4wOCAwLjI5NiBMIDAuNSAwLjQ5NyBMIDAuOTcyIDAuMjcgTCAwLjk3MiAwLjQyNSBMIDAuODk4IDAuNDYxIEwgMC45MjcgMC40NzYgTCAxIDAuNDQxIFogIiBmaWxsPSIjRUI0QTMyIiBzdHJva2U9IiMwMDAwMDAwMCIgc3Ryb2tlLXdpZHRoPSIwLjAwOTI1OTI1OTI1OTI1OTI1OSIvPjxwYXRoIGQ9Ik0gMC45MiAwLjcwMSBMIDAuOTIgMC42NzIgTCAwLjcxNSAwLjc3IEwgMC43MTUgMC43OTkgTCAwLjkyIDAuNzAxIFogIiBmaWxsPSIjRUI0QTMyIiBzdHJva2U9IiMwMDAwMDAwMCIgc3Ryb2tlLXdpZHRoPSIwLjAwOTI1OTI1OTI1OTI1OTI1OSIvPjxwYXRoIGQ9Ik0gMC43MTUgMC40NTQgTCAwLjcxNSAwLjQ4MyBMIDAuOTIgMC4zODQgTCAwLjkyIDAuMzU1IEwgMC43MTUgMC40NTQgWiAiIGZpbGw9IiNFQjRBMzIiIHN0cm9rZT0iIzAwMDAwMDAwIiBzdHJva2Utd2lkdGg9IjAuMDA5MjU5MjU5MjU5MjU5MjU5Ii8+PHBhdGggZD0iTSAwLjY0MSAwLjgxMSBDIDAuNjQxIDAuODIyIDAuNjQ5IDAuODI5IDAuNjYxIDAuODI5IEMgMC42NzIgMC44MjkgMC42OCAwLjgyMiAwLjY4IDAuODExIEMgMC42OCAwLjgwMSAwLjY3MiAwLjc5MyAwLjY2MSAwLjc5MyBDIDAuNjUgMC43OTIgMC42NDEgMC44MDEgMC42NDEgMC44MTEgWiAiIGZpbGw9IiNFQjRBMzIiIHN0cm9rZT0iIzAwMDAwMDAwIiBzdHJva2Utd2lkdGg9IjAuMDA5MjU5MjU5MjU5MjU5MjU5Ii8+PHBhdGggZD0iTSAwLjY0MSAwLjQ4OSBDIDAuNjQxIDAuNDk5IDAuNjQ5IDAuNTA3IDAuNjYxIDAuNTA3IEMgMC42NzIgMC41MDcgMC42OCAwLjQ5OSAwLjY4IDAuNDg5IEMgMC42OCAwLjQ3OSAwLjY3MiAwLjQ3MSAwLjY2MSAwLjQ3MSBDIDAuNjUgMC40NzEgMC42NDEgMC40NzkgMC42NDEgMC40ODkgWiAiIGZpbGw9IiNFQjRBMzIiIHN0cm9rZT0iIzAwMDAwMDAwIiBzdHJva2Utd2lkdGg9IjAuMDA5MjU5MjU5MjU5MjU5MjU5Ii8+PC9zdmc+;html=1;" vertex="1" parent="1">
          <mxGeometry x="197.76" y="140" width="37.24" height="40" as="geometry" />
        </mxCell>
        <mxCell id="jTLYBUjOExdye8NerMVp-28" value="Users" style="sketch=0;outlineConnect=0;fontColor=#232F3E;gradientColor=none;strokeColor=#EB4A32;fillColor=#ffffff;dashed=0;verticalLabelPosition=bottom;verticalAlign=top;align=center;html=1;fontSize=12;fontStyle=0;aspect=fixed;shape=mxgraph.aws4.resourceIcon;resIcon=mxgraph.aws4.users;" vertex="1" parent="1">
          <mxGeometry x="45" y="320" width="60" height="60" as="geometry" />
        </mxCell>
        <mxCell id="jTLYBUjOExdye8NerMVp-29" value="Your Databricks Account" style="text;html=1;align=center;verticalAlign=middle;whiteSpace=wrap;rounded=0;strokeColor=#eb4a32;" vertex="1" parent="1">
          <mxGeometry x="395" y="140" width="135" height="30" as="geometry" />
        </mxCell>
      </root>
    </mxGraphModel>
  </diagram>
</mxfile>
